M48
; DRILL file {KiCad (5.1.6)-1} date 01/27/21 20:14:47
; FORMAT={3:3/ absolute / metric / suppress leading zeros}
; #@! TF.CreationDate,2021-01-27T20:14:47-06:00
; #@! TF.GenerationSoftware,Kicad,Pcbnew,(5.1.6)-1
FMAT,2
METRIC,TZ
T1C0.400
T2C0.600
T3C0.650
T4C0.700
T5C1.000
T6C4.300
%
G90
G05
T1
X135531Y-115643
T2
X102200Y-124200
X108000Y-111400
X110800Y-105200
X111000Y-123200
X113500Y-126250
X114400Y-112000
X117400Y-121200
X117800Y-114600
X120800Y-114600
X124000Y-105600
X128900Y-118050
X131200Y-113400
X131250Y-117950
X132000Y-123900
X134400Y-117400
X134400Y-118400
X135051Y-116521
X135100Y-125000
X135621Y-111379
X135800Y-119600
X137500Y-113800
X137600Y-109400
X137600Y-117400
X138000Y-120400
X138200Y-114612
X139000Y-115300
X139800Y-126600
X139900Y-118900
X141200Y-110700
X143800Y-117950
X144200Y-121400
X148000Y-117000
X149548Y-113575
X150500Y-114025
X150600Y-128600
X150800Y-118600
X153400Y-106400
X153400Y-114400
X162300Y-110200
X166000Y-123200
X168400Y-120000
X101775Y-130000
X102720Y-127720
X102720Y-132280
X105000Y-126775
X105000Y-133225
X107280Y-127720
X107280Y-132280
X108225Y-130000
X166775Y-130000
X167720Y-127720
X167720Y-132280
X170000Y-126775
X170000Y-133225
X172280Y-127720
X172280Y-132280
X173225Y-130000
X166775Y-105000
X167720Y-102720
X167720Y-107280
X170000Y-101775
X170000Y-108225
X172280Y-102720
X172280Y-107280
X173225Y-105000
X101775Y-105000
X102720Y-102720
X102720Y-107280
X105000Y-101775
X105000Y-108225
X107280Y-102720
X107280Y-107280
X108225Y-105000
T5
X113100Y-132500
X115640Y-132500
X118180Y-132500
X120720Y-132500
X123260Y-132500
X125800Y-132500
X128340Y-132500
X130880Y-132500
X133420Y-132500
X135960Y-132500
X138500Y-132500
X141040Y-132500
X143580Y-132500
X146120Y-132500
X148660Y-132500
X151200Y-132500
X153740Y-132500
X156280Y-132500
X158820Y-132500
X161360Y-132500
X113240Y-102500
X115780Y-102500
X118320Y-102500
X120860Y-102500
X123400Y-102500
X125940Y-102500
X128480Y-102500
X131020Y-102500
X133560Y-102500
X136100Y-102500
X138640Y-102500
X141180Y-102500
X143720Y-102500
X146260Y-102500
X148800Y-102500
X151340Y-102500
X153880Y-102500
X156420Y-102500
X158960Y-102500
X161500Y-102500
X153780Y-109100
X153780Y-111640
X156320Y-109100
X156320Y-111640
X158860Y-109100
X158860Y-111640
X104800Y-113780
X104800Y-116320
X104800Y-118860
X104800Y-121400
T6
X105000Y-130000
X170000Y-130000
X170000Y-105000
X105000Y-105000
T3
G00X170315Y-115005
M15
G01X169915Y-115005
M16
G05
G00X170315Y-119845
M15
G01X169915Y-119845
M16
G05
T4
G00X173365Y-114695
M15
G01X172865Y-114695
M16
G05
G00X173365Y-120155
M15
G01X172865Y-120155
M16
G05
T0
M30
