%TF.GenerationSoftware,KiCad,Pcbnew,(5.1.6)-1*%
%TF.CreationDate,2021-01-24T21:28:56-06:00*%
%TF.ProjectId,nix-pill-v1,6e69782d-7069-46c6-9c2d-76312e6b6963,rev?*%
%TF.SameCoordinates,Original*%
%TF.FileFunction,Paste,Top*%
%TF.FilePolarity,Positive*%
%FSLAX46Y46*%
G04 Gerber Fmt 4.6, Leading zero omitted, Abs format (unit mm)*
G04 Created by KiCad (PCBNEW (5.1.6)-1) date 2021-01-24 21:28:56*
%MOMM*%
%LPD*%
G01*
G04 APERTURE LIST*
%ADD10R,0.800000X0.900000*%
%ADD11R,2.000000X1.350000*%
%ADD12R,0.700000X1.825000*%
%ADD13R,1.500000X2.000000*%
%ADD14R,1.650000X0.400000*%
%ADD15R,2.500000X1.430000*%
%ADD16R,1.600000X1.400000*%
%ADD17R,3.800000X2.000000*%
%ADD18R,1.900000X1.100000*%
%ADD19R,1.200000X1.400000*%
G04 APERTURE END LIST*
%TO.C,C1*%
G36*
G01*
X105425000Y-123943750D02*
X105425000Y-124456250D01*
G75*
G02*
X105206250Y-124675000I-218750J0D01*
G01*
X104768750Y-124675000D01*
G75*
G02*
X104550000Y-124456250I0J218750D01*
G01*
X104550000Y-123943750D01*
G75*
G02*
X104768750Y-123725000I218750J0D01*
G01*
X105206250Y-123725000D01*
G75*
G02*
X105425000Y-123943750I0J-218750D01*
G01*
G37*
G36*
G01*
X103850000Y-123943750D02*
X103850000Y-124456250D01*
G75*
G02*
X103631250Y-124675000I-218750J0D01*
G01*
X103193750Y-124675000D01*
G75*
G02*
X102975000Y-124456250I0J218750D01*
G01*
X102975000Y-123943750D01*
G75*
G02*
X103193750Y-123725000I218750J0D01*
G01*
X103631250Y-123725000D01*
G75*
G02*
X103850000Y-123943750I0J-218750D01*
G01*
G37*
%TD*%
%TO.C,C2*%
G36*
G01*
X125125000Y-117693750D02*
X125125000Y-118206250D01*
G75*
G02*
X124906250Y-118425000I-218750J0D01*
G01*
X124468750Y-118425000D01*
G75*
G02*
X124250000Y-118206250I0J218750D01*
G01*
X124250000Y-117693750D01*
G75*
G02*
X124468750Y-117475000I218750J0D01*
G01*
X124906250Y-117475000D01*
G75*
G02*
X125125000Y-117693750I0J-218750D01*
G01*
G37*
G36*
G01*
X123550000Y-117693750D02*
X123550000Y-118206250D01*
G75*
G02*
X123331250Y-118425000I-218750J0D01*
G01*
X122893750Y-118425000D01*
G75*
G02*
X122675000Y-118206250I0J218750D01*
G01*
X122675000Y-117693750D01*
G75*
G02*
X122893750Y-117475000I218750J0D01*
G01*
X123331250Y-117475000D01*
G75*
G02*
X123550000Y-117693750I0J-218750D01*
G01*
G37*
%TD*%
%TO.C,C3*%
G36*
G01*
X126850000Y-123656250D02*
X126850000Y-123143750D01*
G75*
G02*
X127068750Y-122925000I218750J0D01*
G01*
X127506250Y-122925000D01*
G75*
G02*
X127725000Y-123143750I0J-218750D01*
G01*
X127725000Y-123656250D01*
G75*
G02*
X127506250Y-123875000I-218750J0D01*
G01*
X127068750Y-123875000D01*
G75*
G02*
X126850000Y-123656250I0J218750D01*
G01*
G37*
G36*
G01*
X125275000Y-123656250D02*
X125275000Y-123143750D01*
G75*
G02*
X125493750Y-122925000I218750J0D01*
G01*
X125931250Y-122925000D01*
G75*
G02*
X126150000Y-123143750I0J-218750D01*
G01*
X126150000Y-123656250D01*
G75*
G02*
X125931250Y-123875000I-218750J0D01*
G01*
X125493750Y-123875000D01*
G75*
G02*
X125275000Y-123656250I0J218750D01*
G01*
G37*
%TD*%
%TO.C,C4*%
G36*
G01*
X161806250Y-126050000D02*
X161293750Y-126050000D01*
G75*
G02*
X161075000Y-125831250I0J218750D01*
G01*
X161075000Y-125393750D01*
G75*
G02*
X161293750Y-125175000I218750J0D01*
G01*
X161806250Y-125175000D01*
G75*
G02*
X162025000Y-125393750I0J-218750D01*
G01*
X162025000Y-125831250D01*
G75*
G02*
X161806250Y-126050000I-218750J0D01*
G01*
G37*
G36*
G01*
X161806250Y-127625000D02*
X161293750Y-127625000D01*
G75*
G02*
X161075000Y-127406250I0J218750D01*
G01*
X161075000Y-126968750D01*
G75*
G02*
X161293750Y-126750000I218750J0D01*
G01*
X161806250Y-126750000D01*
G75*
G02*
X162025000Y-126968750I0J-218750D01*
G01*
X162025000Y-127406250D01*
G75*
G02*
X161806250Y-127625000I-218750J0D01*
G01*
G37*
%TD*%
%TO.C,C5*%
G36*
G01*
X125125000Y-121293750D02*
X125125000Y-121806250D01*
G75*
G02*
X124906250Y-122025000I-218750J0D01*
G01*
X124468750Y-122025000D01*
G75*
G02*
X124250000Y-121806250I0J218750D01*
G01*
X124250000Y-121293750D01*
G75*
G02*
X124468750Y-121075000I218750J0D01*
G01*
X124906250Y-121075000D01*
G75*
G02*
X125125000Y-121293750I0J-218750D01*
G01*
G37*
G36*
G01*
X123550000Y-121293750D02*
X123550000Y-121806250D01*
G75*
G02*
X123331250Y-122025000I-218750J0D01*
G01*
X122893750Y-122025000D01*
G75*
G02*
X122675000Y-121806250I0J218750D01*
G01*
X122675000Y-121293750D01*
G75*
G02*
X122893750Y-121075000I218750J0D01*
G01*
X123331250Y-121075000D01*
G75*
G02*
X123550000Y-121293750I0J-218750D01*
G01*
G37*
%TD*%
%TO.C,C6*%
G36*
G01*
X126150000Y-129143750D02*
X126150000Y-129656250D01*
G75*
G02*
X125931250Y-129875000I-218750J0D01*
G01*
X125493750Y-129875000D01*
G75*
G02*
X125275000Y-129656250I0J218750D01*
G01*
X125275000Y-129143750D01*
G75*
G02*
X125493750Y-128925000I218750J0D01*
G01*
X125931250Y-128925000D01*
G75*
G02*
X126150000Y-129143750I0J-218750D01*
G01*
G37*
G36*
G01*
X127725000Y-129143750D02*
X127725000Y-129656250D01*
G75*
G02*
X127506250Y-129875000I-218750J0D01*
G01*
X127068750Y-129875000D01*
G75*
G02*
X126850000Y-129656250I0J218750D01*
G01*
X126850000Y-129143750D01*
G75*
G02*
X127068750Y-128925000I218750J0D01*
G01*
X127506250Y-128925000D01*
G75*
G02*
X127725000Y-129143750I0J-218750D01*
G01*
G37*
%TD*%
%TO.C,C7*%
G36*
G01*
X112250000Y-106000000D02*
X113350000Y-106000000D01*
G75*
G02*
X113600000Y-106250000I0J-250000D01*
G01*
X113600000Y-108350000D01*
G75*
G02*
X113350000Y-108600000I-250000J0D01*
G01*
X112250000Y-108600000D01*
G75*
G02*
X112000000Y-108350000I0J250000D01*
G01*
X112000000Y-106250000D01*
G75*
G02*
X112250000Y-106000000I250000J0D01*
G01*
G37*
G36*
G01*
X112250000Y-109600000D02*
X113350000Y-109600000D01*
G75*
G02*
X113600000Y-109850000I0J-250000D01*
G01*
X113600000Y-111950000D01*
G75*
G02*
X113350000Y-112200000I-250000J0D01*
G01*
X112250000Y-112200000D01*
G75*
G02*
X112000000Y-111950000I0J250000D01*
G01*
X112000000Y-109850000D01*
G75*
G02*
X112250000Y-109600000I250000J0D01*
G01*
G37*
%TD*%
%TO.C,C8*%
G36*
G01*
X131647402Y-119885010D02*
X131285010Y-120247403D01*
G75*
G02*
X130975650Y-120247403I-154680J154680D01*
G01*
X130666291Y-119938044D01*
G75*
G02*
X130666291Y-119628684I154680J154680D01*
G01*
X131028684Y-119266291D01*
G75*
G02*
X131338044Y-119266291I154680J-154680D01*
G01*
X131647403Y-119575650D01*
G75*
G02*
X131647403Y-119885010I-154680J-154680D01*
G01*
G37*
G36*
G01*
X130533708Y-118771316D02*
X130171316Y-119133709D01*
G75*
G02*
X129861956Y-119133709I-154680J154680D01*
G01*
X129552597Y-118824350D01*
G75*
G02*
X129552597Y-118514990I154680J154680D01*
G01*
X129914990Y-118152597D01*
G75*
G02*
X130224350Y-118152597I154680J-154680D01*
G01*
X130533709Y-118461956D01*
G75*
G02*
X130533709Y-118771316I-154680J-154680D01*
G01*
G37*
%TD*%
%TO.C,C9*%
G36*
G01*
X126350000Y-108200000D02*
X125250000Y-108200000D01*
G75*
G02*
X125000000Y-107950000I0J250000D01*
G01*
X125000000Y-105850000D01*
G75*
G02*
X125250000Y-105600000I250000J0D01*
G01*
X126350000Y-105600000D01*
G75*
G02*
X126600000Y-105850000I0J-250000D01*
G01*
X126600000Y-107950000D01*
G75*
G02*
X126350000Y-108200000I-250000J0D01*
G01*
G37*
G36*
G01*
X126350000Y-111800000D02*
X125250000Y-111800000D01*
G75*
G02*
X125000000Y-111550000I0J250000D01*
G01*
X125000000Y-109450000D01*
G75*
G02*
X125250000Y-109200000I250000J0D01*
G01*
X126350000Y-109200000D01*
G75*
G02*
X126600000Y-109450000I0J-250000D01*
G01*
X126600000Y-111550000D01*
G75*
G02*
X126350000Y-111800000I-250000J0D01*
G01*
G37*
%TD*%
%TO.C,C10*%
G36*
G01*
X131228684Y-115533708D02*
X130866291Y-115171316D01*
G75*
G02*
X130866291Y-114861956I154680J154680D01*
G01*
X131175650Y-114552597D01*
G75*
G02*
X131485010Y-114552597I154680J-154680D01*
G01*
X131847403Y-114914990D01*
G75*
G02*
X131847403Y-115224350I-154680J-154680D01*
G01*
X131538044Y-115533709D01*
G75*
G02*
X131228684Y-115533709I-154680J154680D01*
G01*
G37*
G36*
G01*
X130114990Y-116647402D02*
X129752597Y-116285010D01*
G75*
G02*
X129752597Y-115975650I154680J154680D01*
G01*
X130061956Y-115666291D01*
G75*
G02*
X130371316Y-115666291I154680J-154680D01*
G01*
X130733709Y-116028684D01*
G75*
G02*
X130733709Y-116338044I-154680J-154680D01*
G01*
X130424350Y-116647403D01*
G75*
G02*
X130114990Y-116647403I-154680J154680D01*
G01*
G37*
%TD*%
%TO.C,C11*%
G36*
G01*
X134647402Y-124285010D02*
X134285010Y-124647403D01*
G75*
G02*
X133975650Y-124647403I-154680J154680D01*
G01*
X133666291Y-124338044D01*
G75*
G02*
X133666291Y-124028684I154680J154680D01*
G01*
X134028684Y-123666291D01*
G75*
G02*
X134338044Y-123666291I154680J-154680D01*
G01*
X134647403Y-123975650D01*
G75*
G02*
X134647403Y-124285010I-154680J-154680D01*
G01*
G37*
G36*
G01*
X133533708Y-123171316D02*
X133171316Y-123533709D01*
G75*
G02*
X132861956Y-123533709I-154680J154680D01*
G01*
X132552597Y-123224350D01*
G75*
G02*
X132552597Y-122914990I154680J154680D01*
G01*
X132914990Y-122552597D01*
G75*
G02*
X133224350Y-122552597I154680J-154680D01*
G01*
X133533709Y-122861956D01*
G75*
G02*
X133533709Y-123171316I-154680J-154680D01*
G01*
G37*
%TD*%
%TO.C,C12*%
G36*
G01*
X139466292Y-111228684D02*
X139828684Y-110866291D01*
G75*
G02*
X140138044Y-110866291I154680J-154680D01*
G01*
X140447403Y-111175650D01*
G75*
G02*
X140447403Y-111485010I-154680J-154680D01*
G01*
X140085010Y-111847403D01*
G75*
G02*
X139775650Y-111847403I-154680J154680D01*
G01*
X139466291Y-111538044D01*
G75*
G02*
X139466291Y-111228684I154680J154680D01*
G01*
G37*
G36*
G01*
X138352598Y-110114990D02*
X138714990Y-109752597D01*
G75*
G02*
X139024350Y-109752597I154680J-154680D01*
G01*
X139333709Y-110061956D01*
G75*
G02*
X139333709Y-110371316I-154680J-154680D01*
G01*
X138971316Y-110733709D01*
G75*
G02*
X138661956Y-110733709I-154680J154680D01*
G01*
X138352597Y-110424350D01*
G75*
G02*
X138352597Y-110114990I154680J154680D01*
G01*
G37*
%TD*%
%TO.C,C13*%
G36*
G01*
X144885010Y-118352598D02*
X145247403Y-118714990D01*
G75*
G02*
X145247403Y-119024350I-154680J-154680D01*
G01*
X144938044Y-119333709D01*
G75*
G02*
X144628684Y-119333709I-154680J154680D01*
G01*
X144266291Y-118971316D01*
G75*
G02*
X144266291Y-118661956I154680J154680D01*
G01*
X144575650Y-118352597D01*
G75*
G02*
X144885010Y-118352597I154680J-154680D01*
G01*
G37*
G36*
G01*
X143771316Y-119466292D02*
X144133709Y-119828684D01*
G75*
G02*
X144133709Y-120138044I-154680J-154680D01*
G01*
X143824350Y-120447403D01*
G75*
G02*
X143514990Y-120447403I-154680J154680D01*
G01*
X143152597Y-120085010D01*
G75*
G02*
X143152597Y-119775650I154680J154680D01*
G01*
X143461956Y-119466291D01*
G75*
G02*
X143771316Y-119466291I154680J-154680D01*
G01*
G37*
%TD*%
%TO.C,D1*%
G36*
G01*
X118643750Y-129150000D02*
X119156250Y-129150000D01*
G75*
G02*
X119375000Y-129368750I0J-218750D01*
G01*
X119375000Y-129806250D01*
G75*
G02*
X119156250Y-130025000I-218750J0D01*
G01*
X118643750Y-130025000D01*
G75*
G02*
X118425000Y-129806250I0J218750D01*
G01*
X118425000Y-129368750D01*
G75*
G02*
X118643750Y-129150000I218750J0D01*
G01*
G37*
G36*
G01*
X118643750Y-127575000D02*
X119156250Y-127575000D01*
G75*
G02*
X119375000Y-127793750I0J-218750D01*
G01*
X119375000Y-128231250D01*
G75*
G02*
X119156250Y-128450000I-218750J0D01*
G01*
X118643750Y-128450000D01*
G75*
G02*
X118425000Y-128231250I0J218750D01*
G01*
X118425000Y-127793750D01*
G75*
G02*
X118643750Y-127575000I218750J0D01*
G01*
G37*
%TD*%
%TO.C,D2*%
G36*
G01*
X111975000Y-115256250D02*
X111975000Y-114743750D01*
G75*
G02*
X112193750Y-114525000I218750J0D01*
G01*
X112631250Y-114525000D01*
G75*
G02*
X112850000Y-114743750I0J-218750D01*
G01*
X112850000Y-115256250D01*
G75*
G02*
X112631250Y-115475000I-218750J0D01*
G01*
X112193750Y-115475000D01*
G75*
G02*
X111975000Y-115256250I0J218750D01*
G01*
G37*
G36*
G01*
X113550000Y-115256250D02*
X113550000Y-114743750D01*
G75*
G02*
X113768750Y-114525000I218750J0D01*
G01*
X114206250Y-114525000D01*
G75*
G02*
X114425000Y-114743750I0J-218750D01*
G01*
X114425000Y-115256250D01*
G75*
G02*
X114206250Y-115475000I-218750J0D01*
G01*
X113768750Y-115475000D01*
G75*
G02*
X113550000Y-115256250I0J218750D01*
G01*
G37*
%TD*%
D10*
%TO.C,D3*%
X112550000Y-129500000D03*
X114450000Y-129500000D03*
X113500000Y-127500000D03*
%TD*%
D11*
%TO.C,J5*%
X172185000Y-114675000D03*
X172185000Y-120155000D03*
D12*
X171435000Y-120375000D03*
X171435000Y-114425000D03*
D13*
X170135000Y-120275000D03*
X170115000Y-114525000D03*
D14*
X170235000Y-118725000D03*
X170235000Y-118075000D03*
X170235000Y-117425000D03*
X170235000Y-116775000D03*
X170235000Y-116125000D03*
D15*
X173385000Y-118385000D03*
X173385000Y-116465000D03*
%TD*%
%TO.C,R1*%
G36*
G01*
X120343750Y-129150000D02*
X120856250Y-129150000D01*
G75*
G02*
X121075000Y-129368750I0J-218750D01*
G01*
X121075000Y-129806250D01*
G75*
G02*
X120856250Y-130025000I-218750J0D01*
G01*
X120343750Y-130025000D01*
G75*
G02*
X120125000Y-129806250I0J218750D01*
G01*
X120125000Y-129368750D01*
G75*
G02*
X120343750Y-129150000I218750J0D01*
G01*
G37*
G36*
G01*
X120343750Y-127575000D02*
X120856250Y-127575000D01*
G75*
G02*
X121075000Y-127793750I0J-218750D01*
G01*
X121075000Y-128231250D01*
G75*
G02*
X120856250Y-128450000I-218750J0D01*
G01*
X120343750Y-128450000D01*
G75*
G02*
X120125000Y-128231250I0J218750D01*
G01*
X120125000Y-127793750D01*
G75*
G02*
X120343750Y-127575000I218750J0D01*
G01*
G37*
%TD*%
%TO.C,R2*%
G36*
G01*
X111975000Y-113656250D02*
X111975000Y-113143750D01*
G75*
G02*
X112193750Y-112925000I218750J0D01*
G01*
X112631250Y-112925000D01*
G75*
G02*
X112850000Y-113143750I0J-218750D01*
G01*
X112850000Y-113656250D01*
G75*
G02*
X112631250Y-113875000I-218750J0D01*
G01*
X112193750Y-113875000D01*
G75*
G02*
X111975000Y-113656250I0J218750D01*
G01*
G37*
G36*
G01*
X113550000Y-113656250D02*
X113550000Y-113143750D01*
G75*
G02*
X113768750Y-112925000I218750J0D01*
G01*
X114206250Y-112925000D01*
G75*
G02*
X114425000Y-113143750I0J-218750D01*
G01*
X114425000Y-113656250D01*
G75*
G02*
X114206250Y-113875000I-218750J0D01*
G01*
X113768750Y-113875000D01*
G75*
G02*
X113550000Y-113656250I0J218750D01*
G01*
G37*
%TD*%
%TO.C,R3*%
G36*
G01*
X154375000Y-106656250D02*
X154375000Y-106143750D01*
G75*
G02*
X154593750Y-105925000I218750J0D01*
G01*
X155031250Y-105925000D01*
G75*
G02*
X155250000Y-106143750I0J-218750D01*
G01*
X155250000Y-106656250D01*
G75*
G02*
X155031250Y-106875000I-218750J0D01*
G01*
X154593750Y-106875000D01*
G75*
G02*
X154375000Y-106656250I0J218750D01*
G01*
G37*
G36*
G01*
X155950000Y-106656250D02*
X155950000Y-106143750D01*
G75*
G02*
X156168750Y-105925000I218750J0D01*
G01*
X156606250Y-105925000D01*
G75*
G02*
X156825000Y-106143750I0J-218750D01*
G01*
X156825000Y-106656250D01*
G75*
G02*
X156606250Y-106875000I-218750J0D01*
G01*
X156168750Y-106875000D01*
G75*
G02*
X155950000Y-106656250I0J218750D01*
G01*
G37*
%TD*%
%TO.C,R4*%
G36*
G01*
X155250000Y-114143750D02*
X155250000Y-114656250D01*
G75*
G02*
X155031250Y-114875000I-218750J0D01*
G01*
X154593750Y-114875000D01*
G75*
G02*
X154375000Y-114656250I0J218750D01*
G01*
X154375000Y-114143750D01*
G75*
G02*
X154593750Y-113925000I218750J0D01*
G01*
X155031250Y-113925000D01*
G75*
G02*
X155250000Y-114143750I0J-218750D01*
G01*
G37*
G36*
G01*
X156825000Y-114143750D02*
X156825000Y-114656250D01*
G75*
G02*
X156606250Y-114875000I-218750J0D01*
G01*
X156168750Y-114875000D01*
G75*
G02*
X155950000Y-114656250I0J218750D01*
G01*
X155950000Y-114143750D01*
G75*
G02*
X156168750Y-113925000I218750J0D01*
G01*
X156606250Y-113925000D01*
G75*
G02*
X156825000Y-114143750I0J-218750D01*
G01*
G37*
%TD*%
%TO.C,R5*%
G36*
G01*
X150293750Y-126750000D02*
X150806250Y-126750000D01*
G75*
G02*
X151025000Y-126968750I0J-218750D01*
G01*
X151025000Y-127406250D01*
G75*
G02*
X150806250Y-127625000I-218750J0D01*
G01*
X150293750Y-127625000D01*
G75*
G02*
X150075000Y-127406250I0J218750D01*
G01*
X150075000Y-126968750D01*
G75*
G02*
X150293750Y-126750000I218750J0D01*
G01*
G37*
G36*
G01*
X150293750Y-125175000D02*
X150806250Y-125175000D01*
G75*
G02*
X151025000Y-125393750I0J-218750D01*
G01*
X151025000Y-125831250D01*
G75*
G02*
X150806250Y-126050000I-218750J0D01*
G01*
X150293750Y-126050000D01*
G75*
G02*
X150075000Y-125831250I0J218750D01*
G01*
X150075000Y-125393750D01*
G75*
G02*
X150293750Y-125175000I218750J0D01*
G01*
G37*
%TD*%
%TO.C,R6*%
G36*
G01*
X166950000Y-117056250D02*
X166950000Y-116543750D01*
G75*
G02*
X167168750Y-116325000I218750J0D01*
G01*
X167606250Y-116325000D01*
G75*
G02*
X167825000Y-116543750I0J-218750D01*
G01*
X167825000Y-117056250D01*
G75*
G02*
X167606250Y-117275000I-218750J0D01*
G01*
X167168750Y-117275000D01*
G75*
G02*
X166950000Y-117056250I0J218750D01*
G01*
G37*
G36*
G01*
X165375000Y-117056250D02*
X165375000Y-116543750D01*
G75*
G02*
X165593750Y-116325000I218750J0D01*
G01*
X166031250Y-116325000D01*
G75*
G02*
X166250000Y-116543750I0J-218750D01*
G01*
X166250000Y-117056250D01*
G75*
G02*
X166031250Y-117275000I-218750J0D01*
G01*
X165593750Y-117275000D01*
G75*
G02*
X165375000Y-117056250I0J218750D01*
G01*
G37*
%TD*%
%TO.C,R7*%
G36*
G01*
X165375000Y-118756250D02*
X165375000Y-118243750D01*
G75*
G02*
X165593750Y-118025000I218750J0D01*
G01*
X166031250Y-118025000D01*
G75*
G02*
X166250000Y-118243750I0J-218750D01*
G01*
X166250000Y-118756250D01*
G75*
G02*
X166031250Y-118975000I-218750J0D01*
G01*
X165593750Y-118975000D01*
G75*
G02*
X165375000Y-118756250I0J218750D01*
G01*
G37*
G36*
G01*
X166950000Y-118756250D02*
X166950000Y-118243750D01*
G75*
G02*
X167168750Y-118025000I218750J0D01*
G01*
X167606250Y-118025000D01*
G75*
G02*
X167825000Y-118243750I0J-218750D01*
G01*
X167825000Y-118756250D01*
G75*
G02*
X167606250Y-118975000I-218750J0D01*
G01*
X167168750Y-118975000D01*
G75*
G02*
X166950000Y-118756250I0J218750D01*
G01*
G37*
%TD*%
%TO.C,R8*%
G36*
G01*
X163943750Y-114775000D02*
X164456250Y-114775000D01*
G75*
G02*
X164675000Y-114993750I0J-218750D01*
G01*
X164675000Y-115431250D01*
G75*
G02*
X164456250Y-115650000I-218750J0D01*
G01*
X163943750Y-115650000D01*
G75*
G02*
X163725000Y-115431250I0J218750D01*
G01*
X163725000Y-114993750D01*
G75*
G02*
X163943750Y-114775000I218750J0D01*
G01*
G37*
G36*
G01*
X163943750Y-116350000D02*
X164456250Y-116350000D01*
G75*
G02*
X164675000Y-116568750I0J-218750D01*
G01*
X164675000Y-117006250D01*
G75*
G02*
X164456250Y-117225000I-218750J0D01*
G01*
X163943750Y-117225000D01*
G75*
G02*
X163725000Y-117006250I0J218750D01*
G01*
X163725000Y-116568750D01*
G75*
G02*
X163943750Y-116350000I218750J0D01*
G01*
G37*
%TD*%
%TO.C,R9*%
G36*
G01*
X128843750Y-125775000D02*
X129356250Y-125775000D01*
G75*
G02*
X129575000Y-125993750I0J-218750D01*
G01*
X129575000Y-126431250D01*
G75*
G02*
X129356250Y-126650000I-218750J0D01*
G01*
X128843750Y-126650000D01*
G75*
G02*
X128625000Y-126431250I0J218750D01*
G01*
X128625000Y-125993750D01*
G75*
G02*
X128843750Y-125775000I218750J0D01*
G01*
G37*
G36*
G01*
X128843750Y-127350000D02*
X129356250Y-127350000D01*
G75*
G02*
X129575000Y-127568750I0J-218750D01*
G01*
X129575000Y-128006250D01*
G75*
G02*
X129356250Y-128225000I-218750J0D01*
G01*
X128843750Y-128225000D01*
G75*
G02*
X128625000Y-128006250I0J218750D01*
G01*
X128625000Y-127568750D01*
G75*
G02*
X128843750Y-127350000I218750J0D01*
G01*
G37*
%TD*%
D16*
%TO.C,SW1*%
X159650000Y-118700000D03*
X152450000Y-118700000D03*
X159650000Y-121700000D03*
X152450000Y-121700000D03*
%TD*%
%TO.C,SW2*%
X152450000Y-127150000D03*
X159650000Y-127150000D03*
X152450000Y-124150000D03*
X159650000Y-124150000D03*
%TD*%
D17*
%TO.C,U1*%
X119300000Y-112650000D03*
D13*
X119300000Y-106350000D03*
X117000000Y-106350000D03*
X121600000Y-106350000D03*
%TD*%
%TO.C,U2*%
G36*
G01*
X132143666Y-119073312D02*
X132037600Y-118967246D01*
G75*
G02*
X132037600Y-118861180I53033J53033D01*
G01*
X132974516Y-117924264D01*
G75*
G02*
X133080582Y-117924264I53033J-53033D01*
G01*
X133186648Y-118030330D01*
G75*
G02*
X133186648Y-118136396I-53033J-53033D01*
G01*
X132249732Y-119073312D01*
G75*
G02*
X132143666Y-119073312I-53033J53033D01*
G01*
G37*
G36*
G01*
X132497220Y-119426866D02*
X132391154Y-119320800D01*
G75*
G02*
X132391154Y-119214734I53033J53033D01*
G01*
X133328070Y-118277818D01*
G75*
G02*
X133434136Y-118277818I53033J-53033D01*
G01*
X133540202Y-118383884D01*
G75*
G02*
X133540202Y-118489950I-53033J-53033D01*
G01*
X132603286Y-119426866D01*
G75*
G02*
X132497220Y-119426866I-53033J53033D01*
G01*
G37*
G36*
G01*
X132850773Y-119780419D02*
X132744707Y-119674353D01*
G75*
G02*
X132744707Y-119568287I53033J53033D01*
G01*
X133681623Y-118631371D01*
G75*
G02*
X133787689Y-118631371I53033J-53033D01*
G01*
X133893755Y-118737437D01*
G75*
G02*
X133893755Y-118843503I-53033J-53033D01*
G01*
X132956839Y-119780419D01*
G75*
G02*
X132850773Y-119780419I-53033J53033D01*
G01*
G37*
G36*
G01*
X133204327Y-120133973D02*
X133098261Y-120027907D01*
G75*
G02*
X133098261Y-119921841I53033J53033D01*
G01*
X134035177Y-118984925D01*
G75*
G02*
X134141243Y-118984925I53033J-53033D01*
G01*
X134247309Y-119090991D01*
G75*
G02*
X134247309Y-119197057I-53033J-53033D01*
G01*
X133310393Y-120133973D01*
G75*
G02*
X133204327Y-120133973I-53033J53033D01*
G01*
G37*
G36*
G01*
X133557880Y-120487526D02*
X133451814Y-120381460D01*
G75*
G02*
X133451814Y-120275394I53033J53033D01*
G01*
X134388730Y-119338478D01*
G75*
G02*
X134494796Y-119338478I53033J-53033D01*
G01*
X134600862Y-119444544D01*
G75*
G02*
X134600862Y-119550610I-53033J-53033D01*
G01*
X133663946Y-120487526D01*
G75*
G02*
X133557880Y-120487526I-53033J53033D01*
G01*
G37*
G36*
G01*
X133911433Y-120841079D02*
X133805367Y-120735013D01*
G75*
G02*
X133805367Y-120628947I53033J53033D01*
G01*
X134742283Y-119692031D01*
G75*
G02*
X134848349Y-119692031I53033J-53033D01*
G01*
X134954415Y-119798097D01*
G75*
G02*
X134954415Y-119904163I-53033J-53033D01*
G01*
X134017499Y-120841079D01*
G75*
G02*
X133911433Y-120841079I-53033J53033D01*
G01*
G37*
G36*
G01*
X134264987Y-121194633D02*
X134158921Y-121088567D01*
G75*
G02*
X134158921Y-120982501I53033J53033D01*
G01*
X135095837Y-120045585D01*
G75*
G02*
X135201903Y-120045585I53033J-53033D01*
G01*
X135307969Y-120151651D01*
G75*
G02*
X135307969Y-120257717I-53033J-53033D01*
G01*
X134371053Y-121194633D01*
G75*
G02*
X134264987Y-121194633I-53033J53033D01*
G01*
G37*
G36*
G01*
X134618540Y-121548186D02*
X134512474Y-121442120D01*
G75*
G02*
X134512474Y-121336054I53033J53033D01*
G01*
X135449390Y-120399138D01*
G75*
G02*
X135555456Y-120399138I53033J-53033D01*
G01*
X135661522Y-120505204D01*
G75*
G02*
X135661522Y-120611270I-53033J-53033D01*
G01*
X134724606Y-121548186D01*
G75*
G02*
X134618540Y-121548186I-53033J53033D01*
G01*
G37*
G36*
G01*
X134972093Y-121901739D02*
X134866027Y-121795673D01*
G75*
G02*
X134866027Y-121689607I53033J53033D01*
G01*
X135802943Y-120752691D01*
G75*
G02*
X135909009Y-120752691I53033J-53033D01*
G01*
X136015075Y-120858757D01*
G75*
G02*
X136015075Y-120964823I-53033J-53033D01*
G01*
X135078159Y-121901739D01*
G75*
G02*
X134972093Y-121901739I-53033J53033D01*
G01*
G37*
G36*
G01*
X135325647Y-122255293D02*
X135219581Y-122149227D01*
G75*
G02*
X135219581Y-122043161I53033J53033D01*
G01*
X136156497Y-121106245D01*
G75*
G02*
X136262563Y-121106245I53033J-53033D01*
G01*
X136368629Y-121212311D01*
G75*
G02*
X136368629Y-121318377I-53033J-53033D01*
G01*
X135431713Y-122255293D01*
G75*
G02*
X135325647Y-122255293I-53033J53033D01*
G01*
G37*
G36*
G01*
X135679200Y-122608846D02*
X135573134Y-122502780D01*
G75*
G02*
X135573134Y-122396714I53033J53033D01*
G01*
X136510050Y-121459798D01*
G75*
G02*
X136616116Y-121459798I53033J-53033D01*
G01*
X136722182Y-121565864D01*
G75*
G02*
X136722182Y-121671930I-53033J-53033D01*
G01*
X135785266Y-122608846D01*
G75*
G02*
X135679200Y-122608846I-53033J53033D01*
G01*
G37*
G36*
G01*
X136032754Y-122962400D02*
X135926688Y-122856334D01*
G75*
G02*
X135926688Y-122750268I53033J53033D01*
G01*
X136863604Y-121813352D01*
G75*
G02*
X136969670Y-121813352I53033J-53033D01*
G01*
X137075736Y-121919418D01*
G75*
G02*
X137075736Y-122025484I-53033J-53033D01*
G01*
X136138820Y-122962400D01*
G75*
G02*
X136032754Y-122962400I-53033J53033D01*
G01*
G37*
G36*
G01*
X138861180Y-122962400D02*
X137924264Y-122025484D01*
G75*
G02*
X137924264Y-121919418I53033J53033D01*
G01*
X138030330Y-121813352D01*
G75*
G02*
X138136396Y-121813352I53033J-53033D01*
G01*
X139073312Y-122750268D01*
G75*
G02*
X139073312Y-122856334I-53033J-53033D01*
G01*
X138967246Y-122962400D01*
G75*
G02*
X138861180Y-122962400I-53033J53033D01*
G01*
G37*
G36*
G01*
X139214734Y-122608846D02*
X138277818Y-121671930D01*
G75*
G02*
X138277818Y-121565864I53033J53033D01*
G01*
X138383884Y-121459798D01*
G75*
G02*
X138489950Y-121459798I53033J-53033D01*
G01*
X139426866Y-122396714D01*
G75*
G02*
X139426866Y-122502780I-53033J-53033D01*
G01*
X139320800Y-122608846D01*
G75*
G02*
X139214734Y-122608846I-53033J53033D01*
G01*
G37*
G36*
G01*
X139568287Y-122255293D02*
X138631371Y-121318377D01*
G75*
G02*
X138631371Y-121212311I53033J53033D01*
G01*
X138737437Y-121106245D01*
G75*
G02*
X138843503Y-121106245I53033J-53033D01*
G01*
X139780419Y-122043161D01*
G75*
G02*
X139780419Y-122149227I-53033J-53033D01*
G01*
X139674353Y-122255293D01*
G75*
G02*
X139568287Y-122255293I-53033J53033D01*
G01*
G37*
G36*
G01*
X139921841Y-121901739D02*
X138984925Y-120964823D01*
G75*
G02*
X138984925Y-120858757I53033J53033D01*
G01*
X139090991Y-120752691D01*
G75*
G02*
X139197057Y-120752691I53033J-53033D01*
G01*
X140133973Y-121689607D01*
G75*
G02*
X140133973Y-121795673I-53033J-53033D01*
G01*
X140027907Y-121901739D01*
G75*
G02*
X139921841Y-121901739I-53033J53033D01*
G01*
G37*
G36*
G01*
X140275394Y-121548186D02*
X139338478Y-120611270D01*
G75*
G02*
X139338478Y-120505204I53033J53033D01*
G01*
X139444544Y-120399138D01*
G75*
G02*
X139550610Y-120399138I53033J-53033D01*
G01*
X140487526Y-121336054D01*
G75*
G02*
X140487526Y-121442120I-53033J-53033D01*
G01*
X140381460Y-121548186D01*
G75*
G02*
X140275394Y-121548186I-53033J53033D01*
G01*
G37*
G36*
G01*
X140628947Y-121194633D02*
X139692031Y-120257717D01*
G75*
G02*
X139692031Y-120151651I53033J53033D01*
G01*
X139798097Y-120045585D01*
G75*
G02*
X139904163Y-120045585I53033J-53033D01*
G01*
X140841079Y-120982501D01*
G75*
G02*
X140841079Y-121088567I-53033J-53033D01*
G01*
X140735013Y-121194633D01*
G75*
G02*
X140628947Y-121194633I-53033J53033D01*
G01*
G37*
G36*
G01*
X140982501Y-120841079D02*
X140045585Y-119904163D01*
G75*
G02*
X140045585Y-119798097I53033J53033D01*
G01*
X140151651Y-119692031D01*
G75*
G02*
X140257717Y-119692031I53033J-53033D01*
G01*
X141194633Y-120628947D01*
G75*
G02*
X141194633Y-120735013I-53033J-53033D01*
G01*
X141088567Y-120841079D01*
G75*
G02*
X140982501Y-120841079I-53033J53033D01*
G01*
G37*
G36*
G01*
X141336054Y-120487526D02*
X140399138Y-119550610D01*
G75*
G02*
X140399138Y-119444544I53033J53033D01*
G01*
X140505204Y-119338478D01*
G75*
G02*
X140611270Y-119338478I53033J-53033D01*
G01*
X141548186Y-120275394D01*
G75*
G02*
X141548186Y-120381460I-53033J-53033D01*
G01*
X141442120Y-120487526D01*
G75*
G02*
X141336054Y-120487526I-53033J53033D01*
G01*
G37*
G36*
G01*
X141689607Y-120133973D02*
X140752691Y-119197057D01*
G75*
G02*
X140752691Y-119090991I53033J53033D01*
G01*
X140858757Y-118984925D01*
G75*
G02*
X140964823Y-118984925I53033J-53033D01*
G01*
X141901739Y-119921841D01*
G75*
G02*
X141901739Y-120027907I-53033J-53033D01*
G01*
X141795673Y-120133973D01*
G75*
G02*
X141689607Y-120133973I-53033J53033D01*
G01*
G37*
G36*
G01*
X142043161Y-119780419D02*
X141106245Y-118843503D01*
G75*
G02*
X141106245Y-118737437I53033J53033D01*
G01*
X141212311Y-118631371D01*
G75*
G02*
X141318377Y-118631371I53033J-53033D01*
G01*
X142255293Y-119568287D01*
G75*
G02*
X142255293Y-119674353I-53033J-53033D01*
G01*
X142149227Y-119780419D01*
G75*
G02*
X142043161Y-119780419I-53033J53033D01*
G01*
G37*
G36*
G01*
X142396714Y-119426866D02*
X141459798Y-118489950D01*
G75*
G02*
X141459798Y-118383884I53033J53033D01*
G01*
X141565864Y-118277818D01*
G75*
G02*
X141671930Y-118277818I53033J-53033D01*
G01*
X142608846Y-119214734D01*
G75*
G02*
X142608846Y-119320800I-53033J-53033D01*
G01*
X142502780Y-119426866D01*
G75*
G02*
X142396714Y-119426866I-53033J53033D01*
G01*
G37*
G36*
G01*
X142750268Y-119073312D02*
X141813352Y-118136396D01*
G75*
G02*
X141813352Y-118030330I53033J53033D01*
G01*
X141919418Y-117924264D01*
G75*
G02*
X142025484Y-117924264I53033J-53033D01*
G01*
X142962400Y-118861180D01*
G75*
G02*
X142962400Y-118967246I-53033J-53033D01*
G01*
X142856334Y-119073312D01*
G75*
G02*
X142750268Y-119073312I-53033J53033D01*
G01*
G37*
G36*
G01*
X141919418Y-117075736D02*
X141813352Y-116969670D01*
G75*
G02*
X141813352Y-116863604I53033J53033D01*
G01*
X142750268Y-115926688D01*
G75*
G02*
X142856334Y-115926688I53033J-53033D01*
G01*
X142962400Y-116032754D01*
G75*
G02*
X142962400Y-116138820I-53033J-53033D01*
G01*
X142025484Y-117075736D01*
G75*
G02*
X141919418Y-117075736I-53033J53033D01*
G01*
G37*
G36*
G01*
X141565864Y-116722182D02*
X141459798Y-116616116D01*
G75*
G02*
X141459798Y-116510050I53033J53033D01*
G01*
X142396714Y-115573134D01*
G75*
G02*
X142502780Y-115573134I53033J-53033D01*
G01*
X142608846Y-115679200D01*
G75*
G02*
X142608846Y-115785266I-53033J-53033D01*
G01*
X141671930Y-116722182D01*
G75*
G02*
X141565864Y-116722182I-53033J53033D01*
G01*
G37*
G36*
G01*
X141212311Y-116368629D02*
X141106245Y-116262563D01*
G75*
G02*
X141106245Y-116156497I53033J53033D01*
G01*
X142043161Y-115219581D01*
G75*
G02*
X142149227Y-115219581I53033J-53033D01*
G01*
X142255293Y-115325647D01*
G75*
G02*
X142255293Y-115431713I-53033J-53033D01*
G01*
X141318377Y-116368629D01*
G75*
G02*
X141212311Y-116368629I-53033J53033D01*
G01*
G37*
G36*
G01*
X140858757Y-116015075D02*
X140752691Y-115909009D01*
G75*
G02*
X140752691Y-115802943I53033J53033D01*
G01*
X141689607Y-114866027D01*
G75*
G02*
X141795673Y-114866027I53033J-53033D01*
G01*
X141901739Y-114972093D01*
G75*
G02*
X141901739Y-115078159I-53033J-53033D01*
G01*
X140964823Y-116015075D01*
G75*
G02*
X140858757Y-116015075I-53033J53033D01*
G01*
G37*
G36*
G01*
X140505204Y-115661522D02*
X140399138Y-115555456D01*
G75*
G02*
X140399138Y-115449390I53033J53033D01*
G01*
X141336054Y-114512474D01*
G75*
G02*
X141442120Y-114512474I53033J-53033D01*
G01*
X141548186Y-114618540D01*
G75*
G02*
X141548186Y-114724606I-53033J-53033D01*
G01*
X140611270Y-115661522D01*
G75*
G02*
X140505204Y-115661522I-53033J53033D01*
G01*
G37*
G36*
G01*
X140151651Y-115307969D02*
X140045585Y-115201903D01*
G75*
G02*
X140045585Y-115095837I53033J53033D01*
G01*
X140982501Y-114158921D01*
G75*
G02*
X141088567Y-114158921I53033J-53033D01*
G01*
X141194633Y-114264987D01*
G75*
G02*
X141194633Y-114371053I-53033J-53033D01*
G01*
X140257717Y-115307969D01*
G75*
G02*
X140151651Y-115307969I-53033J53033D01*
G01*
G37*
G36*
G01*
X139798097Y-114954415D02*
X139692031Y-114848349D01*
G75*
G02*
X139692031Y-114742283I53033J53033D01*
G01*
X140628947Y-113805367D01*
G75*
G02*
X140735013Y-113805367I53033J-53033D01*
G01*
X140841079Y-113911433D01*
G75*
G02*
X140841079Y-114017499I-53033J-53033D01*
G01*
X139904163Y-114954415D01*
G75*
G02*
X139798097Y-114954415I-53033J53033D01*
G01*
G37*
G36*
G01*
X139444544Y-114600862D02*
X139338478Y-114494796D01*
G75*
G02*
X139338478Y-114388730I53033J53033D01*
G01*
X140275394Y-113451814D01*
G75*
G02*
X140381460Y-113451814I53033J-53033D01*
G01*
X140487526Y-113557880D01*
G75*
G02*
X140487526Y-113663946I-53033J-53033D01*
G01*
X139550610Y-114600862D01*
G75*
G02*
X139444544Y-114600862I-53033J53033D01*
G01*
G37*
G36*
G01*
X139090991Y-114247309D02*
X138984925Y-114141243D01*
G75*
G02*
X138984925Y-114035177I53033J53033D01*
G01*
X139921841Y-113098261D01*
G75*
G02*
X140027907Y-113098261I53033J-53033D01*
G01*
X140133973Y-113204327D01*
G75*
G02*
X140133973Y-113310393I-53033J-53033D01*
G01*
X139197057Y-114247309D01*
G75*
G02*
X139090991Y-114247309I-53033J53033D01*
G01*
G37*
G36*
G01*
X138737437Y-113893755D02*
X138631371Y-113787689D01*
G75*
G02*
X138631371Y-113681623I53033J53033D01*
G01*
X139568287Y-112744707D01*
G75*
G02*
X139674353Y-112744707I53033J-53033D01*
G01*
X139780419Y-112850773D01*
G75*
G02*
X139780419Y-112956839I-53033J-53033D01*
G01*
X138843503Y-113893755D01*
G75*
G02*
X138737437Y-113893755I-53033J53033D01*
G01*
G37*
G36*
G01*
X138383884Y-113540202D02*
X138277818Y-113434136D01*
G75*
G02*
X138277818Y-113328070I53033J53033D01*
G01*
X139214734Y-112391154D01*
G75*
G02*
X139320800Y-112391154I53033J-53033D01*
G01*
X139426866Y-112497220D01*
G75*
G02*
X139426866Y-112603286I-53033J-53033D01*
G01*
X138489950Y-113540202D01*
G75*
G02*
X138383884Y-113540202I-53033J53033D01*
G01*
G37*
G36*
G01*
X138030330Y-113186648D02*
X137924264Y-113080582D01*
G75*
G02*
X137924264Y-112974516I53033J53033D01*
G01*
X138861180Y-112037600D01*
G75*
G02*
X138967246Y-112037600I53033J-53033D01*
G01*
X139073312Y-112143666D01*
G75*
G02*
X139073312Y-112249732I-53033J-53033D01*
G01*
X138136396Y-113186648D01*
G75*
G02*
X138030330Y-113186648I-53033J53033D01*
G01*
G37*
G36*
G01*
X136863604Y-113186648D02*
X135926688Y-112249732D01*
G75*
G02*
X135926688Y-112143666I53033J53033D01*
G01*
X136032754Y-112037600D01*
G75*
G02*
X136138820Y-112037600I53033J-53033D01*
G01*
X137075736Y-112974516D01*
G75*
G02*
X137075736Y-113080582I-53033J-53033D01*
G01*
X136969670Y-113186648D01*
G75*
G02*
X136863604Y-113186648I-53033J53033D01*
G01*
G37*
G36*
G01*
X136510050Y-113540202D02*
X135573134Y-112603286D01*
G75*
G02*
X135573134Y-112497220I53033J53033D01*
G01*
X135679200Y-112391154D01*
G75*
G02*
X135785266Y-112391154I53033J-53033D01*
G01*
X136722182Y-113328070D01*
G75*
G02*
X136722182Y-113434136I-53033J-53033D01*
G01*
X136616116Y-113540202D01*
G75*
G02*
X136510050Y-113540202I-53033J53033D01*
G01*
G37*
G36*
G01*
X136156497Y-113893755D02*
X135219581Y-112956839D01*
G75*
G02*
X135219581Y-112850773I53033J53033D01*
G01*
X135325647Y-112744707D01*
G75*
G02*
X135431713Y-112744707I53033J-53033D01*
G01*
X136368629Y-113681623D01*
G75*
G02*
X136368629Y-113787689I-53033J-53033D01*
G01*
X136262563Y-113893755D01*
G75*
G02*
X136156497Y-113893755I-53033J53033D01*
G01*
G37*
G36*
G01*
X135802943Y-114247309D02*
X134866027Y-113310393D01*
G75*
G02*
X134866027Y-113204327I53033J53033D01*
G01*
X134972093Y-113098261D01*
G75*
G02*
X135078159Y-113098261I53033J-53033D01*
G01*
X136015075Y-114035177D01*
G75*
G02*
X136015075Y-114141243I-53033J-53033D01*
G01*
X135909009Y-114247309D01*
G75*
G02*
X135802943Y-114247309I-53033J53033D01*
G01*
G37*
G36*
G01*
X135449390Y-114600862D02*
X134512474Y-113663946D01*
G75*
G02*
X134512474Y-113557880I53033J53033D01*
G01*
X134618540Y-113451814D01*
G75*
G02*
X134724606Y-113451814I53033J-53033D01*
G01*
X135661522Y-114388730D01*
G75*
G02*
X135661522Y-114494796I-53033J-53033D01*
G01*
X135555456Y-114600862D01*
G75*
G02*
X135449390Y-114600862I-53033J53033D01*
G01*
G37*
G36*
G01*
X135095837Y-114954415D02*
X134158921Y-114017499D01*
G75*
G02*
X134158921Y-113911433I53033J53033D01*
G01*
X134264987Y-113805367D01*
G75*
G02*
X134371053Y-113805367I53033J-53033D01*
G01*
X135307969Y-114742283D01*
G75*
G02*
X135307969Y-114848349I-53033J-53033D01*
G01*
X135201903Y-114954415D01*
G75*
G02*
X135095837Y-114954415I-53033J53033D01*
G01*
G37*
G36*
G01*
X134742283Y-115307969D02*
X133805367Y-114371053D01*
G75*
G02*
X133805367Y-114264987I53033J53033D01*
G01*
X133911433Y-114158921D01*
G75*
G02*
X134017499Y-114158921I53033J-53033D01*
G01*
X134954415Y-115095837D01*
G75*
G02*
X134954415Y-115201903I-53033J-53033D01*
G01*
X134848349Y-115307969D01*
G75*
G02*
X134742283Y-115307969I-53033J53033D01*
G01*
G37*
G36*
G01*
X134388730Y-115661522D02*
X133451814Y-114724606D01*
G75*
G02*
X133451814Y-114618540I53033J53033D01*
G01*
X133557880Y-114512474D01*
G75*
G02*
X133663946Y-114512474I53033J-53033D01*
G01*
X134600862Y-115449390D01*
G75*
G02*
X134600862Y-115555456I-53033J-53033D01*
G01*
X134494796Y-115661522D01*
G75*
G02*
X134388730Y-115661522I-53033J53033D01*
G01*
G37*
G36*
G01*
X134035177Y-116015075D02*
X133098261Y-115078159D01*
G75*
G02*
X133098261Y-114972093I53033J53033D01*
G01*
X133204327Y-114866027D01*
G75*
G02*
X133310393Y-114866027I53033J-53033D01*
G01*
X134247309Y-115802943D01*
G75*
G02*
X134247309Y-115909009I-53033J-53033D01*
G01*
X134141243Y-116015075D01*
G75*
G02*
X134035177Y-116015075I-53033J53033D01*
G01*
G37*
G36*
G01*
X133681623Y-116368629D02*
X132744707Y-115431713D01*
G75*
G02*
X132744707Y-115325647I53033J53033D01*
G01*
X132850773Y-115219581D01*
G75*
G02*
X132956839Y-115219581I53033J-53033D01*
G01*
X133893755Y-116156497D01*
G75*
G02*
X133893755Y-116262563I-53033J-53033D01*
G01*
X133787689Y-116368629D01*
G75*
G02*
X133681623Y-116368629I-53033J53033D01*
G01*
G37*
G36*
G01*
X133328070Y-116722182D02*
X132391154Y-115785266D01*
G75*
G02*
X132391154Y-115679200I53033J53033D01*
G01*
X132497220Y-115573134D01*
G75*
G02*
X132603286Y-115573134I53033J-53033D01*
G01*
X133540202Y-116510050D01*
G75*
G02*
X133540202Y-116616116I-53033J-53033D01*
G01*
X133434136Y-116722182D01*
G75*
G02*
X133328070Y-116722182I-53033J53033D01*
G01*
G37*
G36*
G01*
X132974516Y-117075736D02*
X132037600Y-116138820D01*
G75*
G02*
X132037600Y-116032754I53033J53033D01*
G01*
X132143666Y-115926688D01*
G75*
G02*
X132249732Y-115926688I53033J-53033D01*
G01*
X133186648Y-116863604D01*
G75*
G02*
X133186648Y-116969670I-53033J-53033D01*
G01*
X133080582Y-117075736D01*
G75*
G02*
X132974516Y-117075736I-53033J53033D01*
G01*
G37*
%TD*%
D18*
%TO.C,Y1*%
X126700000Y-118050000D03*
X126700000Y-121450000D03*
%TD*%
D19*
%TO.C,Y2*%
X125650000Y-125300000D03*
X125650000Y-127500000D03*
X127350000Y-127500000D03*
X127350000Y-125300000D03*
%TD*%
M02*
