%TF.GenerationSoftware,KiCad,Pcbnew,(5.1.6)-1*%
%TF.CreationDate,2021-01-27T20:14:57-06:00*%
%TF.ProjectId,nix-pill-v1,6e69782d-7069-46c6-9c2d-76312e6b6963,rev?*%
%TF.SameCoordinates,Original*%
%TF.FileFunction,Soldermask,Bot*%
%TF.FilePolarity,Negative*%
%FSLAX46Y46*%
G04 Gerber Fmt 4.6, Leading zero omitted, Abs format (unit mm)*
G04 Created by KiCad (PCBNEW (5.1.6)-1) date 2021-01-27 20:14:57*
%MOMM*%
%LPD*%
G01*
G04 APERTURE LIST*
%ADD10C,1.000000*%
%ADD11C,8.700000*%
%ADD12O,1.800000X1.800000*%
%ADD13R,1.800000X1.800000*%
%ADD14O,1.600000X1.200000*%
%ADD15O,1.800000X1.450000*%
G04 APERTURE END LIST*
D10*
%TO.C,H4*%
X107280419Y-127719581D03*
X105000000Y-126775000D03*
X102719581Y-127719581D03*
X101775000Y-130000000D03*
X102719581Y-132280419D03*
X105000000Y-133225000D03*
X107280419Y-132280419D03*
X108225000Y-130000000D03*
D11*
X105000000Y-130000000D03*
%TD*%
D10*
%TO.C,H3*%
X172280419Y-127719581D03*
X170000000Y-126775000D03*
X167719581Y-127719581D03*
X166775000Y-130000000D03*
X167719581Y-132280419D03*
X170000000Y-133225000D03*
X172280419Y-132280419D03*
X173225000Y-130000000D03*
D11*
X170000000Y-130000000D03*
%TD*%
D10*
%TO.C,H2*%
X172280419Y-102719581D03*
X170000000Y-101775000D03*
X167719581Y-102719581D03*
X166775000Y-105000000D03*
X167719581Y-107280419D03*
X170000000Y-108225000D03*
X172280419Y-107280419D03*
X173225000Y-105000000D03*
D11*
X170000000Y-105000000D03*
%TD*%
D10*
%TO.C,H1*%
X107280419Y-102719581D03*
X105000000Y-101775000D03*
X102719581Y-102719581D03*
X101775000Y-105000000D03*
X102719581Y-107280419D03*
X105000000Y-108225000D03*
X107280419Y-107280419D03*
X108225000Y-105000000D03*
D11*
X105000000Y-105000000D03*
%TD*%
D12*
%TO.C,J1*%
X113240000Y-102500000D03*
X115780000Y-102500000D03*
X118320000Y-102500000D03*
X120860000Y-102500000D03*
X123400000Y-102500000D03*
X125940000Y-102500000D03*
X128480000Y-102500000D03*
X131020000Y-102500000D03*
X133560000Y-102500000D03*
X136100000Y-102500000D03*
X138640000Y-102500000D03*
X141180000Y-102500000D03*
X143720000Y-102500000D03*
X146260000Y-102500000D03*
X148800000Y-102500000D03*
X151340000Y-102500000D03*
X153880000Y-102500000D03*
X156420000Y-102500000D03*
X158960000Y-102500000D03*
D13*
X161500000Y-102500000D03*
%TD*%
%TO.C,J2*%
X158860000Y-109100000D03*
D12*
X158860000Y-111640000D03*
X156320000Y-109100000D03*
X156320000Y-111640000D03*
X153780000Y-109100000D03*
X153780000Y-111640000D03*
%TD*%
D13*
%TO.C,J3*%
X161360000Y-132500000D03*
D12*
X158820000Y-132500000D03*
X156280000Y-132500000D03*
X153740000Y-132500000D03*
X151200000Y-132500000D03*
X148660000Y-132500000D03*
X146120000Y-132500000D03*
X143580000Y-132500000D03*
X141040000Y-132500000D03*
X138500000Y-132500000D03*
X135960000Y-132500000D03*
X133420000Y-132500000D03*
X130880000Y-132500000D03*
X128340000Y-132500000D03*
X125800000Y-132500000D03*
X123260000Y-132500000D03*
X120720000Y-132500000D03*
X118180000Y-132500000D03*
X115640000Y-132500000D03*
X113100000Y-132500000D03*
%TD*%
D13*
%TO.C,J4*%
X104800000Y-121400000D03*
D12*
X104800000Y-118860000D03*
X104800000Y-116320000D03*
X104800000Y-113780000D03*
%TD*%
D14*
%TO.C,J5*%
X170115000Y-119845000D03*
X170115000Y-115005000D03*
D15*
X173115000Y-120155000D03*
X173115000Y-114695000D03*
%TD*%
M02*
